{
  "accessors": [
    {
      "bufferView": 2,
      "componentType": 5126,
      "count": 65532,
      "max": [
        0.37365999817848206,
        0.9172539710998535,
        0.41433900594711304
      ],
      "min": [
        -0.37362000346183777,
        -0.9425150156021118,
        -0.41439199447631836
      ],
      "type": "VEC3"
    },
    {
      "bufferView": 2,
      "byteOffset": 786384,
      "componentType": 5126,
      "count": 65532,
      "max": [
        0.9999992251396179,
        0.9989095330238342,
        0.999925971031189
      ],
      "min": [
        -0.9999788403511047,
        -0.995613157749176,
        -0.9998503923416138
      ],
      "type": "VEC3"
    },
    {
      "bufferView": 1,
      "componentType": 5126,
      "count": 65532,
      "max": [
        0.9984790086746216,
        0.9919909834861755
      ],
      "min": [
        0.003163000103086233,
        0.008098006248474121
      ],
      "type": "VEC2"
    },
    {
      "bufferView": 0,
      "componentType": 5125,
      "count": 342924,
      "type": "SCALAR"
    },
    {
      "bufferView": 2,
      "byteOffset": 1572768,
      "componentType": 5126,
      "count": 65532,
      "max": [
        0.3733679950237274,
        0.807358980178833,
        0.41571199893951416
      ],
      "min": [
        -0.3697519898414612,
        -0.7926669716835022,
        -0.41499701142311096
      ],
      "type": "VEC3"
    },
    {
      "bufferView": 2,
      "byteOffset": 2359152,
      "componentType": 5126,
      "count": 65532,
      "max": [
        0.9999985694885254,
        0.9992793798446655,
        0.9999817609786987
      ],
      "min": [
        -0.9996936917304993,
        -0.9991039633750916,
        -0.9999974370002747
      ],
      "type": "VEC3"
    },
    {
      "bufferView": 1,
      "byteOffset": 524256,
      "componentType": 5126,
      "count": 65532,
      "max": [
        0.9999840259552002,
        0.9974830150604248
      ],
      "min": [
        0.000195999993593432,
        0.004580974578857422
      ],
      "type": "VEC2"
    },
    {
      "bufferView": 0,
      "byteOffset": 1371696,
      "componentType": 5125,
      "count": 341088,
      "type": "SCALAR"
    },
    {
      "bufferView": 2,
      "byteOffset": 3145536,
      "componentType": 5126,
      "count": 65532,
      "max": [
        0.37192198634147644,
        0.9517430067062378,
        0.2686249911785126
      ],
      "min": [
        -0.3735010027885437,
        -0.8942850232124329,
        -0.14160199463367462
      ],
      "type": "VEC3"
    },
    {
      "bufferView": 2,
      "byteOffset": 3931920,
      "componentType": 5126,
      "count": 65532,
      "max": [
        0.9999637603759766,
        0.9980133771896362,
        0.9997747540473938
      ],
      "min": [
        -0.9999819993972778,
        -0.9957273006439209,
        -0.999415397644043
      ],
      "type": "VEC3"
    },
    {
      "bufferView": 1,
      "byteOffset": 1048512,
      "componentType": 5126,
      "count": 65532,
      "max": [
        0.9999639987945557,
        0.9994180202484131
      ],
      "min": [
        6.900000153109431e-05,
        0.0021709799766540527
      ],
      "type": "VEC2"
    },
    {
      "bufferView": 0,
      "byteOffset": 2736048,
      "componentType": 5125,
      "count": 326904,
      "type": "SCALAR"
    },
    {
      "bufferView": 2,
      "byteOffset": 4718304,
      "componentType": 5126,
      "count": 65532,
      "max": [
        0.3736549913883209,
        0.9483649730682373,
        0.04190700128674507
      ],
      "min": [
        -0.37372300028800964,
        -0.9488340020179749,
        -0.40738099813461304
      ],
      "type": "VEC3"
    },
    {
      "bufferView": 2,
      "byteOffset": 5504688,
      "componentType": 5126,
      "count": 65532,
      "max": [
        0.9999939203262329,
        0.9918020367622375,
        0.9998787641525269
      ],
      "min": [
        -0.9999994039535522,
        -0.9978241920471191,
        -0.9999577403068542
      ],
      "type": "VEC3"
    },
    {
      "bufferView": 1,
      "byteOffset": 1572768,
      "componentType": 5126,
      "count": 65532,
      "max": [
        0.9999030232429504,
        0.9977859854698181
      ],
      "min": [
        0.00015700000221841037,
        0.0010309815406799316
      ],
      "type": "VEC2"
    },
    {
      "bufferView": 0,
      "byteOffset": 4043664,
      "componentType": 5125,
      "count": 335493,
      "type": "SCALAR"
    },
    {
      "bufferView": 2,
      "byteOffset": 6291072,
      "componentType": 5126,
      "count": 38871,
      "max": [
        0.37345799803733826,
        0.9491639733314514,
        0.010742000304162502
      ],
      "min": [
        -0.3734619915485382,
        -0.9412840008735657,
        -0.41604700684547424
      ],
      "type": "VEC3"
    },
    {
      "bufferView": 2,
      "byteOffset": 6757524,
      "componentType": 5126,
      "count": 38871,
      "max": [
        0.9999741315841675,
        0.9995841383934021,
        0.9990008473396301
      ],
      "min": [
        -0.9999994039535522,
        -0.9972368478775024,
        -0.9999575614929199
      ],
      "type": "VEC3"
    },
    {
      "bufferView": 1,
      "byteOffset": 2097024,
      "componentType": 5126,
      "count": 38871,
      "max": [
        0.9997940063476563,
        0.9999290108680725
      ],
      "min": [
        0.00014800000644754618,
        0.004710972309112549
      ],
      "type": "VEC2"
    },
    {
      "bufferView": 0,
      "byteOffset": 5385636,
      "componentType": 5125,
      "count": 175278,
      "type": "SCALAR"
    }
  ],
  "asset": {
    "extras": {
      "author": "nightslashradier (https://sketchfab.com/nightslashradier)",
      "license": "CC-BY-4.0 (http://creativecommons.org/licenses/by/4.0/)",
      "source": "https://sketchfab.com/3d-models/anti-matter-shard-1bcd4fa759ba494b932fe0ccda8acca8",
      "title": "Anti Matter Shard"
    },
    "generator": "Sketchfab-16.75.0",
    "version": "2.0"
  },
  "bufferViews": [
    {
      "buffer": 0,
      "byteLength": 6086748,
      "name": "floatBufferViews",
      "target": 34963
    },
    {
      "buffer": 0,
      "byteLength": 2407992,
      "byteOffset": 6086748,
      "byteStride": 8,
      "name": "floatBufferViews",
      "target": 34962
    },
    {
      "buffer": 0,
      "byteLength": 7223976,
      "byteOffset": 8494740,
      "byteStride": 12,
      "name": "floatBufferViews",
      "target": 34962
    }
  ],
  "buffers": [
    {
      "byteLength": 15718716,
      "uri": "scene.bin"
    }
  ],
  "images": [
    {
      "uri": "textures/material_0_baseColor.jpeg"
    }
  ],
  "materials": [
    {
      "doubleSided": true,
      "name": "material_0",
      "pbrMetallicRoughness": {
        "baseColorTexture": {
          "index": 0
        },
        "metallicFactor": 0.0,
        "roughnessFactor": 0.8
      }
    }
  ],
  "meshes": [
    {
      "name": "Object_0",
      "primitives": [
        {
          "attributes": {
            "NORMAL": 1,
            "POSITION": 0,
            "TEXCOORD_0": 2
          },
          "indices": 3,
          "material": 0,
          "mode": 4
        }
      ]
    },
    {
      "name": "Object_1",
      "primitives": [
        {
          "attributes": {
            "NORMAL": 5,
            "POSITION": 4,
            "TEXCOORD_0": 6
          },
          "indices": 7,
          "material": 0,
          "mode": 4
        }
      ]
    },
    {
      "name": "Object_2",
      "primitives": [
        {
          "attributes": {
            "NORMAL": 9,
            "POSITION": 8,
            "TEXCOORD_0": 10
          },
          "indices": 11,
          "material": 0,
          "mode": 4
        }
      ]
    },
    {
      "name": "Object_3",
      "primitives": [
        {
          "attributes": {
            "NORMAL": 13,
            "POSITION": 12,
            "TEXCOORD_0": 14
          },
          "indices": 15,
          "material": 0,
          "mode": 4
        }
      ]
    },
    {
      "name": "Object_4",
      "primitives": [
        {
          "attributes": {
            "NORMAL": 17,
            "POSITION": 16,
            "TEXCOORD_0": 18
          },
          "indices": 19,
          "material": 0,
          "mode": 4
        }
      ]
    }
  ],
  "nodes": [
    {
      "children": [
        1
      ],
      "matrix": [
        1.0,
        0.0,
        0.0,
        0.0,
        0.0,
        2.220446049250313e-16,
        -1.0,
        0.0,
        0.0,
        1.0,
        2.220446049250313e-16,
        0.0,
        0.0,
        0.0,
        0.0,
        1.0
      ],
      "name": "Sketchfab_model"
    },
    {
      "children": [
        2
      ],
      "name": "root"
    },
    {
      "children": [
        3
      ],
      "matrix": [
        1.0,
        0.0,
        0.0,
        0.0,
        0.0,
        2.220446049250313e-16,
        1.0,
        0.0,
        0.0,
        -1.0,
        2.220446049250313e-16,
        0.0,
        0.0,
        0.0,
        0.0,
        1.0
      ],
      "name": "GLTF_SceneRootNode"
    },
    {
      "children": [
        4,
        5,
        6,
        7,
        8
      ],
      "name": "_0"
    },
    {
      "mesh": 0,
      "name": "Object_4"
    },
    {
      "mesh": 1,
      "name": "Object_5"
    },
    {
      "mesh": 2,
      "name": "Object_6"
    },
    {
      "mesh": 3,
      "name": "Object_7"
    },
    {
      "mesh": 4,
      "name": "Object_8"
    }
  ],
  "samplers": [
    {
      "magFilter": 9729,
      "minFilter": 9987,
      "wrapS": 10497,
      "wrapT": 10497
    }
  ],
  "scene": 0,
  "scenes": [
    {
      "name": "Sketchfab_Scene",
      "nodes": [
        0
      ]
    }
  ],
  "textures": [
    {
      "sampler": 0,
      "source": 0
    }
  ]
}
